<svg id="visual" viewBox="0 0 1000 400" width="1000" height="400" xmlns="http://www.w3.org/2000/svg" xmlns:xlink="http://www.w3.org/1999/xlink" version="1.1"><path d="M0 25L27.8 25C55.7 25 111.3 25 166.8 25C222.3 25 277.7 25 333.2 25C388.7 25 444.3 25 500 23C555.7 21 611.3 17 666.8 14.3C722.3 11.7 777.7 10.3 833.2 12.3C888.7 14.3 944.3 19.7 972.2 22.3L1000 25L1000 0L972.2 0C944.3 0 888.7 0 833.2 0C777.7 0 722.3 0 666.8 0C611.3 0 555.7 0 500 0C444.3 0 388.7 0 333.2 0C277.7 0 222.3 0 166.8 0C111.3 0 55.7 0 27.8 0L0 0Z" fill="#3f1672"></path><path d="M0 137L27.8 127C55.7 117 111.3 97 166.8 93.7C222.3 90.3 277.7 103.7 333.2 110.3C388.7 117 444.3 117 500 119C555.7 121 611.3 125 666.8 115.7C722.3 106.3 777.7 83.7 833.2 79.7C888.7 75.7 944.3 90.3 972.2 97.7L1000 105L1000 23L972.2 20.3C944.3 17.7 888.7 12.3 833.2 10.3C777.7 8.3 722.3 9.7 666.8 12.3C611.3 15 555.7 19 500 21C444.3 23 388.7 23 333.2 23C277.7 23 222.3 23 166.8 23C111.3 23 55.7 23 27.8 23L0 23Z" fill="#441779"></path><path d="M0 169L27.8 159C55.7 149 111.3 129 166.8 128.3C222.3 127.7 277.7 146.3 333.2 157C388.7 167.7 444.3 170.3 500 169C555.7 167.7 611.3 162.3 666.8 151.7C722.3 141 777.7 125 833.2 125C888.7 125 944.3 141 972.2 149L1000 157L1000 103L972.2 95.7C944.3 88.3 888.7 73.7 833.2 77.7C777.7 81.7 722.3 104.3 666.8 113.7C611.3 123 555.7 119 500 117C444.3 115 388.7 115 333.2 108.3C277.7 101.7 222.3 88.3 166.8 91.7C111.3 95 55.7 115 27.8 125L0 135Z" fill="#481780"></path><path d="M0 197L27.8 184.3C55.7 171.7 111.3 146.3 166.8 143.7C222.3 141 277.7 161 333.2 171.7C388.7 182.3 444.3 183.7 500 185.7C555.7 187.7 611.3 190.3 666.8 181C722.3 171.7 777.7 150.3 833.2 148.3C888.7 146.3 944.3 163.7 972.2 172.3L1000 181L1000 155L972.2 147C944.3 139 888.7 123 833.2 123C777.7 123 722.3 139 666.8 149.7C611.3 160.3 555.7 165.7 500 167C444.3 168.3 388.7 165.7 333.2 155C277.7 144.3 222.3 125.7 166.8 126.3C111.3 127 55.7 147 27.8 157L0 167Z" fill="#4d1888"></path><path d="M0 225L27.8 209.7C55.7 194.3 111.3 163.7 166.8 157.7C222.3 151.7 277.7 170.3 333.2 180.3C388.7 190.3 444.3 191.7 500 195C555.7 198.3 611.3 203.7 666.8 196.3C722.3 189 777.7 169 833.2 167C888.7 165 944.3 181 972.2 189L1000 197L1000 179L972.2 170.3C944.3 161.7 888.7 144.3 833.2 146.3C777.7 148.3 722.3 169.7 666.8 179C611.3 188.3 555.7 185.7 500 183.7C444.3 181.7 388.7 180.3 333.2 169.7C277.7 159 222.3 139 166.8 141.7C111.3 144.3 55.7 169.7 27.8 182.3L0 195Z" fill="#52188f"></path><path d="M0 249L27.8 235C55.7 221 111.3 193 166.8 190.3C222.3 187.7 277.7 210.3 333.2 217.7C388.7 225 444.3 217 500 215.7C555.7 214.3 611.3 219.7 666.8 216.3C722.3 213 777.7 201 833.2 201C888.7 201 944.3 213 972.2 219L1000 225L1000 195L972.2 187C944.3 179 888.7 163 833.2 165C777.7 167 722.3 187 666.8 194.3C611.3 201.7 555.7 196.3 500 193C444.3 189.7 388.7 188.3 333.2 178.3C277.7 168.3 222.3 149.7 166.8 155.7C111.3 161.7 55.7 192.3 27.8 207.7L0 223Z" fill="#571896"></path><path d="M0 309L27.8 300.3C55.7 291.7 111.3 274.3 166.8 271C222.3 267.7 277.7 278.3 333.2 285.7C388.7 293 444.3 297 500 294.3C555.7 291.7 611.3 282.3 666.8 275C722.3 267.7 777.7 262.3 833.2 267.7C888.7 273 944.3 289 972.2 297L1000 305L1000 223L972.2 217C944.3 211 888.7 199 833.2 199C777.7 199 722.3 211 666.8 214.3C611.3 217.7 555.7 212.3 500 213.7C444.3 215 388.7 223 333.2 215.7C277.7 208.3 222.3 185.7 166.8 188.3C111.3 191 55.7 219 27.8 233L0 247Z" fill="#5e1d9d"></path><path d="M0 321L27.8 313C55.7 305 111.3 289 166.8 286.3C222.3 283.7 277.7 294.3 333.2 301C388.7 307.7 444.3 310.3 500 307C555.7 303.7 611.3 294.3 666.8 286.3C722.3 278.3 777.7 271.7 833.2 277.7C888.7 283.7 944.3 302.3 972.2 311.7L1000 321L1000 303L972.2 295C944.3 287 888.7 271 833.2 265.7C777.7 260.3 722.3 265.7 666.8 273C611.3 280.3 555.7 289.7 500 292.3C444.3 295 388.7 291 333.2 283.7C277.7 276.3 222.3 265.7 166.8 269C111.3 272.3 55.7 289.7 27.8 298.3L0 307Z" fill="#6527a2"></path><path d="M0 341L27.8 335C55.7 329 111.3 317 166.8 314.3C222.3 311.7 277.7 318.3 333.2 323.7C388.7 329 444.3 333 500 332.3C555.7 331.7 611.3 326.3 666.8 321C722.3 315.7 777.7 310.3 833.2 313C888.7 315.7 944.3 326.3 972.2 331.7L1000 337L1000 319L972.2 309.7C944.3 300.3 888.7 281.7 833.2 275.7C777.7 269.7 722.3 276.3 666.8 284.3C611.3 292.3 555.7 301.7 500 305C444.3 308.3 388.7 305.7 333.2 299C277.7 292.3 222.3 281.7 166.8 284.3C111.3 287 55.7 303 27.8 311L0 319Z" fill="#6c30a7"></path><path d="M0 353L27.8 346.3C55.7 339.7 111.3 326.3 166.8 323C222.3 319.7 277.7 326.3 333.2 332.3C388.7 338.3 444.3 343.7 500 344.3C555.7 345 611.3 341 666.8 337C722.3 333 777.7 329 833.2 330.3C888.7 331.7 944.3 338.3 972.2 341.7L1000 345L1000 335L972.2 329.7C944.3 324.3 888.7 313.7 833.2 311C777.7 308.3 722.3 313.7 666.8 319C611.3 324.3 555.7 329.7 500 330.3C444.3 331 388.7 327 333.2 321.7C277.7 316.3 222.3 309.7 166.8 312.3C111.3 315 55.7 327 27.8 333L0 339Z" fill="#7339ac"></path><path d="M0 365L27.8 361C55.7 357 111.3 349 166.8 347C222.3 345 277.7 349 333.2 354.3C388.7 359.7 444.3 366.3 500 367C555.7 367.7 611.3 362.3 666.8 359C722.3 355.7 777.7 354.3 833.2 357.7C888.7 361 944.3 369 972.2 373L1000 377L1000 343L972.2 339.7C944.3 336.3 888.7 329.7 833.2 328.3C777.7 327 722.3 331 666.8 335C611.3 339 555.7 343 500 342.3C444.3 341.7 388.7 336.3 333.2 330.3C277.7 324.3 222.3 317.7 166.8 321C111.3 324.3 55.7 337.7 27.8 344.3L0 351Z" fill="#7a42b2"></path><path d="M0 401L27.8 401C55.7 401 111.3 401 166.8 401C222.3 401 277.7 401 333.2 401C388.7 401 444.3 401 500 401C555.7 401 611.3 401 666.8 401C722.3 401 777.7 401 833.2 401C888.7 401 944.3 401 972.2 401L1000 401L1000 375L972.2 371C944.3 367 888.7 359 833.2 355.7C777.7 352.3 722.3 353.7 666.8 357C611.3 360.3 555.7 365.7 500 365C444.3 364.3 388.7 357.7 333.2 352.3C277.7 347 222.3 343 166.8 345C111.3 347 55.7 355 27.8 359L0 363Z" fill="#814ab7"></path></svg>