<svg id="visual" viewBox="0 0 1000 100" width="1000" height="100" xmlns="http://www.w3.org/2000/svg" xmlns:xlink="http://www.w3.org/1999/xlink" version="1.1"><path d="M0 36L33.3 37.7C66.7 39.3 133.3 42.7 200 45.2C266.7 47.7 333.3 49.3 400 48.2C466.7 47 533.3 43 600 42.5C666.7 42 733.3 45 800 43.2C866.7 41.3 933.3 34.7 966.7 31.3L1000 28L1000 101L966.7 101C933.3 101 866.7 101 800 101C733.3 101 666.7 101 600 101C533.3 101 466.7 101 400 101C333.3 101 266.7 101 200 101C133.3 101 66.7 101 33.3 101L0 101Z" fill="#814ab7"></path><path d="M0 43L33.3 45.8C66.7 48.7 133.3 54.3 200 58.3C266.7 62.3 333.3 64.7 400 62.3C466.7 60 533.3 53 600 51.2C666.7 49.3 733.3 52.7 800 56C866.7 59.3 933.3 62.7 966.7 64.3L1000 66L1000 101L966.7 101C933.3 101 866.7 101 800 101C733.3 101 666.7 101 600 101C533.3 101 466.7 101 400 101C333.3 101 266.7 101 200 101C133.3 101 66.7 101 33.3 101L0 101Z" fill="#5a189a"></path><path d="M0 74L33.3 76C66.7 78 133.3 82 200 83C266.7 84 333.3 82 400 81.7C466.7 81.3 533.3 82.7 600 83.7C666.7 84.7 733.3 85.3 800 81.8C866.7 78.3 933.3 70.7 966.7 66.8L1000 63L1000 101L966.7 101C933.3 101 866.7 101 800 101C733.3 101 666.7 101 600 101C533.3 101 466.7 101 400 101C333.3 101 266.7 101 200 101C133.3 101 66.7 101 33.3 101L0 101Z" fill="#3f1672"></path></svg>